<?xml version="1.0" standalone="no"?>
<!DOCTYPE svg PUBLIC "-//W3C//DTD SVG 20010904//EN"
 "http://www.w3.org/TR/2001/REC-SVG-20010904/DTD/svg10.dtd">
<svg version="1.0" xmlns="http://www.w3.org/2000/svg"
 width="8250.000000pt" height="5500.000000pt" viewBox="0 0 8250.000000 5500.000000"
 preserveAspectRatio="xMidYMid meet">

<g transform="translate(0.000000,5500.000000) scale(0.100000,-0.100000)"
fill="#000000" stroke="none">
<path d="M8810 52589 c-109 -10 -258 -45 -349 -82 -310 -125 -469 -388 -501
-824 -14 -202 -13 -9717 1 -10720 16 -1083 16 -2670 1 -4028 -18 -1538 -12
-25038 6 -25150 44 -270 91 -400 190 -529 108 -140 314 -239 572 -275 41 -6
91 -13 110 -17 19 -4 1178 -10 2576 -13 l2541 -6 -54 -180 c-30 -99 -204 -648
-388 -1220 -376 -1171 -632 -1978 -669 -2107 -72 -250 -56 -482 48 -693 137
-276 399 -442 733 -462 171 -10 337 29 475 113 84 51 195 158 258 249 100 145
80 89 670 1915 141 435 394 1230 560 1755 78 248 153 470 165 495 31 60 80
105 135 126 41 15 138 16 1070 14 1063 -1 1164 2 1317 40 172 44 343 155 450
295 71 92 147 249 173 355 24 102 26 254 5 353 -36 170 -141 354 -274 479 -85
80 -186 140 -301 178 -161 53 74 50 -4437 50 l-4183 0 0 19065 0 19065 31535
0 31535 0 0 -19077 0 -19076 -3162 9 c-3918 11 -29891 11 -33983 0 -2882 -8
-3003 -9 -3082 -27 -156 -35 -310 -125 -427 -249 -161 -171 -238 -356 -238
-575 -1 -234 87 -444 257 -616 178 -179 345 -240 718 -260 134 -8 5209 -10
16912 -7 16102 3 16722 2 16772 -15 101 -35 169 -107 213 -224 11 -30 81 -249
156 -486 144 -459 387 -1219 814 -2547 144 -448 279 -852 300 -896 113 -243
273 -383 527 -461 80 -24 103 -27 258 -27 149 -1 180 2 249 22 339 98 569 377
605 734 10 99 -1 238 -25 330 -33 128 -203 668 -704 2228 -304 945 -410 1289
-410 1327 0 10 550 13 2568 16 2838 4 2642 -1 2844 67 327 110 488 321 559
731 11 60 14 3802 17 19959 2 13310 -1 19928 -7 20015 -29 374 -181 624 -466
765 -114 56 -218 85 -355 100 -121 12 -64743 11 -64880 -1z"/>
<path d="M20940 23783 c-94 -9 -234 -39 -310 -65 -296 -103 -457 -311 -528
-681 -16 -87 -17 -648 -20 -10077 -2 -7279 0 -10019 8 -10109 38 -421 221
-679 563 -791 180 -58 -191 -54 4647 -58 4530 -3 4577 -3 4759 35 331 68 535
254 616 563 50 190 47 -401 56 8745 10 9027 4 11536 -25 11696 -78 430 -284
638 -716 726 -80 16 -370 17 -4550 19 -2456 0 -4481 -1 -4500 -3z m8048
-10895 l-3 -9133 -3570 0 -3570 0 -3 9133 -2 9132 3575 0 3575 0 -2 -9132z"/>
<path d="M23574 20505 c-217 -47 -354 -208 -354 -415 0 -173 88 -306 255 -386
250 -120 551 -22 664 216 23 49 26 67 26 170 0 108 -2 119 -32 182 -58 123
-164 200 -319 233 -84 18 -159 18 -240 0z"/>
<path d="M27374 20505 c-257 -56 -408 -294 -336 -531 61 -200 235 -318 467
-317 218 2 397 126 451 310 26 91 16 225 -24 306 -92 186 -324 283 -558 232z"/>
<path d="M27385 16930 c-128 -28 -228 -96 -303 -205 -34 -50 -62 -149 -62
-218 0 -120 44 -220 134 -305 100 -95 227 -138 376 -129 236 16 410 161 439
369 30 216 -102 405 -329 472 -67 20 -201 28 -255 16z"/>
<path d="M23539 16911 c-131 -42 -236 -129 -287 -238 -24 -52 -27 -69 -27
-168 0 -103 2 -114 32 -178 112 -236 421 -326 681 -199 202 98 292 352 198
557 -50 110 -179 206 -314 234 -80 17 -218 13 -283 -8z"/>
<path d="M25411 16894 c-205 -55 -310 -228 -281 -461 29 -226 212 -349 489
-330 286 21 442 174 429 421 -6 109 -41 186 -117 259 -101 96 -188 127 -355
126 -63 0 -134 -7 -165 -15z"/>
<path d="M23608 15130 c-249 -45 -398 -221 -386 -454 10 -187 132 -329 329
-381 82 -22 233 -19 315 6 125 38 221 118 272 227 24 51 27 68 27 172 0 105
-2 120 -28 174 -54 116 -142 194 -264 235 -70 23 -197 34 -265 21z"/>
<path d="M25460 15099 c-77 -12 -171 -53 -223 -98 -80 -71 -121 -211 -105
-363 16 -168 132 -296 309 -343 72 -20 249 -19 324 0 183 48 272 163 283 366
4 80 1 109 -17 165 -53 173 -197 269 -416 279 -49 2 -119 -1 -155 -6z"/>
<path d="M27400 15099 c-134 -23 -278 -125 -341 -241 -32 -60 -34 -68 -34
-163 0 -88 3 -107 27 -157 31 -67 101 -145 166 -187 81 -51 164 -74 277 -74
296 -2 445 135 447 409 0 56 -6 112 -16 146 -33 116 -129 210 -251 247 -76 24
-202 33 -275 20z"/>
<path d="M23582 13329 c-110 -21 -231 -100 -290 -189 -142 -212 -65 -504 161
-615 63 -30 172 -55 248 -55 73 0 200 33 258 67 200 117 271 347 170 551 -91
185 -320 286 -547 241z"/>
<path d="M27358 13324 c-181 -43 -292 -177 -313 -376 -22 -209 154 -436 372
-478 150 -30 349 41 458 162 21 22 51 70 68 107 27 57 31 76 30 146 -2 213
-135 387 -338 440 -72 18 -200 18 -277 -1z"/>
<path d="M25461 13320 c-72 -15 -167 -66 -216 -115 -26 -25 -61 -76 -78 -113
-30 -64 -32 -73 -32 -188 0 -119 0 -121 38 -196 102 -208 332 -286 594 -203
127 40 214 110 270 217 26 49 28 61 28 173 0 114 -2 123 -32 187 -72 153 -214
231 -437 242 -50 3 -111 1 -135 -4z"/>
<path d="M25105 9804 c-387 -52 -732 -181 -1045 -389 -559 -373 -928 -955
-1037 -1638 -25 -161 -25 -577 0 -732 125 -758 552 -1372 1214 -1744 495 -279
1128 -366 1708 -235 259 58 565 188 785 332 578 379 951 959 1066 1657 26 156
26 543 1 705 -81 512 -305 962 -661 1328 -393 404 -871 645 -1419 717 -146 19
-471 18 -612 -1z m610 -884 c623 -133 1073 -582 1207 -1204 29 -135 32 -432 5
-576 -38 -203 -131 -428 -250 -605 -80 -118 -274 -312 -393 -393 -471 -318
-1064 -357 -1576 -102 -368 184 -652 513 -776 900 -57 180 -67 246 -67 465 0
220 12 302 67 475 180 563 673 978 1259 1060 113 16 411 4 524 -20z"/>
<path d="M32258 15319 c-168 -27 -302 -123 -370 -266 -36 -75 -44 -148 -29
-238 31 -177 147 -291 348 -342 64 -17 1079 -18 19568 -18 18435 0 19503 1
19562 17 127 35 214 99 266 196 57 107 63 282 13 380 -52 102 -136 172 -253
211 -97 33 -408 54 -803 55 -184 1 -956 -5 -1715 -13 -1182 -12 -1500 -13
-2225 -1 -1248 21 -24699 28 -25875 8 -1015 -17 -1865 -17 -3150 1 -917 12
-1142 12 -2225 -4 -1175 -17 -1469 -16 -2325 5 -654 16 -738 17 -787 9z"/>
<path d="M11230 15310 c-190 -23 -326 -106 -388 -238 -25 -53 -27 -67 -26
-182 0 -140 11 -181 69 -266 65 -95 165 -146 321 -165 124 -15 7372 -6 7439
10 77 18 169 65 215 111 23 23 56 72 73 108 31 64 32 73 32 192 0 120 -1 128
-32 192 -39 83 -102 147 -183 188 -127 64 152 60 -3825 59 -1996 -1 -3659 -5
-3695 -9z"/>
</g>
</svg>
